<?xml version="1.0" standalone="no"?>
<!DOCTYPE svg PUBLIC "-//W3C//DTD SVG 20010904//EN"
 "http://www.w3.org/TR/2001/REC-SVG-20010904/DTD/svg10.dtd">
<svg version="1.0" xmlns="http://www.w3.org/2000/svg"
 width="600.000000pt" height="480.000000pt" viewBox="0 0 600.000000 480.000000"
 preserveAspectRatio="xMidYMid meet">

<g transform="translate(0.000000,480.000000) scale(0.100000,-0.100000)"
fill="#000000" stroke="none">
<path d="M0 2400 l0 -2400 3000 0 3000 0 0 2400 0 2400 -3000 0 -3000 0 0
-2400z m2270 1005 c0 -238 -1 -245 -20 -245 -11 0 -20 -3 -20 -7 -1 -25 205
-841 211 -838 4 3 10 22 14 42 6 35 179 744 191 786 4 13 -1 17 -20 17 l-26 0
0 245 0 245 395 0 395 0 -2 -242 -3 -243 -22 -3 c-13 -2 -23 -7 -23 -11 0 -4
31 -133 69 -287 38 -153 84 -341 102 -416 18 -76 36 -134 40 -130 4 4 23 75
43 157 47 197 156 645 162 668 4 13 -1 17 -20 17 l-26 0 0 245 0 245 345 0
345 0 0 -245 0 -245 -73 0 -73 0 -178 -722 c-98 -398 -181 -729 -183 -735 -3
-8 4 -13 21 -13 l26 0 0 -245 0 -245 -390 0 -390 0 0 245 c0 238 1 245 20 245
11 0 20 6 20 13 0 18 -204 847 -207 843 -2 -2 -49 -187 -104 -412 -55 -225
-102 -417 -105 -426 -4 -14 1 -18 20 -18 l26 0 0 -245 0 -245 -390 0 -390 0 0
245 c0 238 1 245 20 245 11 0 20 6 20 13 0 6 -59 251 -131 542 -72 292 -152
616 -178 720 l-47 190 -72 3 -72 3 0 244 0 245 340 0 340 0 0 -245z"/>
<path d="M1620 3405 l0 -215 70 0 c64 0 70 -2 75 -22 3 -13 86 -353 185 -756
99 -404 180 -738 180 -743 0 -5 -11 -9 -25 -9 l-25 0 0 -210 0 -210 360 0 360
0 0 209 0 210 -29 3 -29 3 124 509 c68 280 125 511 127 512 3 3 248 -1006 247
-1018 0 -5 -11 -8 -25 -8 l-25 0 0 -210 0 -210 360 0 360 0 0 209 0 210 -28 3
-29 3 187 760 186 760 69 5 70 5 0 210 0 210 -310 0 -310 0 0 -210 0 -210 28
-3 c21 -3 27 -8 23 -20 -3 -9 -57 -233 -121 -497 -64 -264 -119 -487 -122
-495 -3 -8 -29 82 -58 200 -102 414 -195 800 -195 805 0 3 11 5 25 5 l25 0 0
215 0 215 -357 -2 -358 -3 0 -210 0 -210 28 -3 c21 -3 27 -8 23 -20 -6 -17
-107 -434 -191 -782 -26 -107 -50 -200 -54 -207 -4 -7 -37 115 -75 270 -37
155 -92 381 -122 502 -30 121 -54 223 -54 228 0 4 11 7 25 7 l25 0 0 215 0
215 -310 0 -310 0 0 -215z m570 0 l0 -165 -30 0 c-34 0 -35 -4 -15 -79 8 -31
37 -148 64 -261 147 -615 226 -929 231 -922 3 4 29 104 58 222 29 118 95 391
147 605 52 215 97 400 100 413 5 20 2 22 -30 22 l-35 0 0 165 0 165 310 0 310
0 0 -165 0 -165 -30 0 c-16 0 -30 -4 -30 -9 0 -10 79 -337 234 -966 40 -165
76 -293 79 -285 4 8 44 173 91 365 47 193 114 470 150 618 37 147 66 269 66
272 0 3 -16 5 -35 5 l-35 0 0 165 0 165 265 0 265 0 0 -165 0 -164 -66 -3 -67
-3 -192 -787 c-106 -433 -196 -799 -199 -813 -6 -23 -4 -25 29 -25 l35 0 0
-160 0 -160 -310 0 -310 0 0 160 0 160 30 0 c17 0 30 5 30 13 1 17 -303 1267
-307 1263 -2 -2 -248 -1002 -308 -1253 -5 -21 -2 -23 30 -23 l35 0 0 -160 0
-160 -310 0 -310 0 0 160 0 160 30 0 c17 0 30 4 30 8 0 18 -46 209 -214 896
-97 395 -176 720 -176 722 0 2 -29 4 -65 4 l-65 0 0 165 0 165 260 0 260 0 0
-165z"/>
</g>
</svg>
